<svg xmlns="http://www.w3.org/2000/svg" fill="none" viewBox="0 0 16 16">
  <path stroke="#fff" stroke-linecap="round" stroke-linejoin="round" stroke-width="1.3" d="m1.667 14.333 3.7-1.422c.236-.091.354-.137.465-.196.098-.053.192-.114.28-.183.1-.077.19-.166.369-.345L14 4.667A1.886 1.886 0 1 0 11.333 2l-7.52 7.52c-.18.18-.27.269-.346.368a2 2 0 0 0-.182.28c-.06.11-.105.23-.196.466l-1.423 3.7Zm0 0 1.372-3.567c.098-.255.147-.383.232-.441a.333.333 0 0 1 .252-.054c.1.02.198.116.391.31l1.506 1.505c.193.194.29.29.31.391a.333.333 0 0 1-.054.253c-.059.084-.186.133-.442.231l-3.567 1.372Z"/>
</svg>
