<svg aria-hidden="true" style="position: absolute; width: 0; height: 0; overflow: hidden;" version="1.1" xmlns="http://www.w3.org/2000/svg" xmlns:xlink="http://www.w3.org/1999/xlink">
<defs>
<symbol id="icon-logo" viewBox="0 0 32 32">
<path d="M29.082 0.314h-4.009c-1.237 0-2.24 0.983-2.24 2.195v3.929c0 1.212 1.003 2.195 2.24 2.195h4.009c1.237 0 2.24-0.983 2.24-2.195v-3.929c0-1.212-1.003-2.195-2.24-2.195z"></path>
<path d="M6.73 23.040h-4.318c-1.332 0-2.412 0.983-2.412 2.195v3.929c0 1.213 1.080 2.195 2.412 2.195h4.318c1.332 0 2.412-0.983 2.412-2.195v-3.929c0-1.212-1.080-2.195-2.412-2.195z"></path>
<path d="M6.25 11.582h-4.009c-1.237 0-2.24 0.983-2.24 2.195v3.929c0 1.212 1.003 2.195 2.24 2.195h4.009c1.237 0 2.24-0.983 2.24-2.195v-3.929c0-1.212-1.003-2.195-2.24-2.195z"></path>
<path d="M17.766 22.978h-4.009c-1.237 0-2.24 0.983-2.24 2.195l-0 3.929c0 1.212 1.003 2.195 2.241 2.195h4.009c1.237 0 2.24-0.983 2.24-2.195v-3.929c0-1.212-1.003-2.195-2.24-2.195z"></path>
<path d="M6.25 0.086h-4.009c-1.237 0-2.24 0.983-2.24 2.195v3.929c0 1.212 1.003 2.195 2.24 2.195h4.009c1.237 0 2.24-0.983 2.24-2.195v-3.929c0-1.212-1.003-2.195-2.24-2.195z"></path>
<path d="M18.076 11.697h-4.009c-1.237 0-2.24 0.983-2.24 2.195v3.929c0 1.212 1.003 2.195 2.24 2.195h4.009c1.237 0 2.24-0.983 2.24-2.195v-3.929c0-1.212-1.003-2.195-2.24-2.195z"></path>
<path d="M29.333 22.978h-4.010c-1.237 0-2.24 0.983-2.24 2.195v3.929c0 1.212 1.003 2.195 2.24 2.195h4.009c1.237 0 2.24-0.983 2.24-2.195v-3.929c0-1.212-1.003-2.195-2.24-2.195z"></path>
<path d="M17.591 0.224h-4.009c-1.237 0-2.24 0.983-2.24 2.195v3.929c0 1.212 1.003 2.195 2.24 2.195h4.009c1.237 0 2.24-0.984 2.24-2.196v-3.929c0-1.212-1.003-2.195-2.24-2.195z"></path>
<path d="M29.044 11.926h-4.010c-1.237 0-2.24 0.983-2.24 2.195v3.929c0 1.212 1.003 2.195 2.24 2.195h4.009c1.237 0 2.24-0.983 2.24-2.195v-3.929c0-1.212-1.003-2.195-2.24-2.195z"></path>
</symbol>
<symbol id="icon-user" viewBox="0 0 32 32">
<path d="M28.865 26.5c-1.904-3.291-4.838-5.651-8.261-6.77 1.694-1.008 3.009-2.544 3.745-4.373s0.851-3.848 0.329-5.748c-0.523-1.9-1.655-3.576-3.223-4.771s-3.484-1.842-5.455-1.842c-1.971 0-3.887 0.647-5.455 1.842s-2.7 2.871-3.223 4.771-0.407 3.92 0.329 5.748c0.736 1.828 2.052 3.365 3.745 4.373-3.424 1.118-6.358 3.478-8.261 6.77-0.070 0.114-0.116 0.241-0.136 0.373s-0.014 0.267 0.019 0.396c0.033 0.129 0.091 0.251 0.172 0.358s0.182 0.196 0.297 0.263 0.243 0.11 0.376 0.126c0.132 0.017 0.267 0.006 0.396-0.030s0.248-0.098 0.353-0.181c0.104-0.083 0.191-0.187 0.255-0.304 2.355-4.070 6.517-6.5 11.134-6.5s8.779 2.43 11.134 6.5c0.064 0.117 0.15 0.221 0.255 0.304s0.224 0.145 0.353 0.181c0.129 0.036 0.263 0.046 0.396 0.030s0.26-0.060 0.376-0.126c0.116-0.067 0.217-0.156 0.297-0.263s0.139-0.228 0.172-0.358c0.033-0.129 0.039-0.264 0.019-0.396s-0.066-0.259-0.136-0.373zM9 12c0-1.384 0.411-2.738 1.18-3.889s1.862-2.048 3.142-2.578 2.687-0.668 4.044-0.398c1.358 0.27 2.605 0.937 3.584 1.916s1.646 2.226 1.916 3.584c0.27 1.358 0.131 2.765-0.398 4.044s-1.427 2.372-2.578 3.141c-1.151 0.769-2.505 1.18-3.889 1.18-1.856-0.002-3.635-0.74-4.948-2.052s-2.050-3.092-2.052-4.948z"></path>
</symbol>
<symbol id="icon-plus" viewBox="0 0 24 24">
<path d="M18 10h-4v-4c0-1.104-0.896-2-2-2s-2 0.896-2 2l0.071 4h-4.071c-1.104 0-2 0.896-2 2s0.896 2 2 2l4.071-0.071-0.071 4.071c0 1.104 0.896 2 2 2s2-0.896 2-2v-4.071l4 0.071c1.104 0 2-0.896 2-2s-0.896-2-2-2z"></path>
</symbol>
<symbol id="icon-menu" viewBox="0 0 32 32">
<path stroke-linejoin="round" stroke-linecap="round" stroke-miterlimit="4" stroke-width="2.3529" d="M4 16h24"></path>
<path stroke-linejoin="round" stroke-linecap="round" stroke-miterlimit="4" stroke-width="2.3529" d="M4 8h24"></path>
<path stroke-linejoin="round" stroke-linecap="round" stroke-miterlimit="4" stroke-width="2.3529" d="M4 24h24"></path>
</symbol>
<symbol id="icon-close" viewBox="0 0 32 32">
<path stroke-linejoin="round" stroke-linecap="round" stroke-miterlimit="4" stroke-width="2.3529" d="M24 8l-16 16"></path>
<path stroke-linejoin="round" stroke-linecap="round" stroke-miterlimit="4" stroke-width="2.3529" d="M8 8l16 16"></path>
</symbol>
<symbol id="icon-log-out" viewBox="0 0 32 32">
<path fill="none" stroke="#fff" style="stroke: var(--color1, #fff)" stroke-linejoin="round" stroke-linecap="round" stroke-miterlimit="4" stroke-width="3.2" d="M21.333 22.667l6.667-6.667M28 16l-6.667-6.667M28 16h-16M12 4h-1.6c-2.24 0-3.36 0-4.216 0.436-0.753 0.383-1.365 0.995-1.748 1.748-0.436 0.856-0.436 1.976-0.436 4.216v11.2c0 2.24 0 3.36 0.436 4.216 0.383 0.753 0.995 1.364 1.748 1.748 0.856 0.436 1.976 0.436 4.216 0.436h1.6"></path>
</symbol>
<!--  -->
<!-- swagger -->
<symbol id="swagger-icon" viewBox="0 0 256 256">
    <path fill="#85EA2D" d="M127.999 249.895c-67.215 0-121.9-54.68-121.9-121.896C6.1 60.782 60.785 6.102 128 6.102c67.214 0 121.899 54.685 121.899 121.9c0 67.214-54.685 121.893-121.9 121.893Z"/>
    <path fill="#173647" d="M127.999 12.202c63.954 0 115.797 51.842 115.797 115.797c0 63.952-51.843 115.797-115.797 115.797c-63.952 0-115.797-51.845-115.797-115.797S64.047 12.202 127.999 12.202m0-12.202C57.419 0 0 57.42 0 127.999s57.42 127.998 127.999 127.998S256 198.577 256 128C256 57.419 198.578 0 127.999 0Z"/>
    <path fill="#173647" d="M80.598 86.619c-.394 4.38.146 8.909-.146 13.338c-.345 4.431-.887 8.811-1.773 13.192c-1.23 6.25-5.12 10.976-10.482 14.914c10.436 6.793 11.616 17.324 12.304 28.006c.345 5.76.197 11.567.788 17.276c.443 4.429 2.165 5.562 6.745 5.708c1.87.048 3.786 0 5.956 0v13.683c-13.535 2.313-24.708-1.525-27.467-12.992c-.887-4.184-1.478-8.467-1.673-12.798c-.297-4.578.195-9.155-.148-13.732c-.985-12.553-2.61-16.785-14.618-17.376v-15.602a23.714 23.714 0 0 1 2.608-.443c6.596-.345 9.4-2.364 10.828-8.86c.69-3.641 1.084-7.333 1.23-11.074c.494-7.136.297-14.42 1.525-21.507C67.997 68.163 74.3 63.24 84.785 62.65c2.952-.149 5.955 0 9.35 0v13.98c-1.427.1-2.658.294-3.937.294c-8.515-.297-8.96 2.607-9.6 9.695Zm16.39 32.386h-.196c-4.923-.245-9.155 3.593-9.403 8.515c-.246 4.972 3.592 9.206 8.515 9.45h.59c4.875.296 9.056-3.447 9.352-8.319v-.491c.1-4.971-3.886-9.055-8.857-9.155Zm30.862 0c-4.774-.148-8.763 3.593-8.909 8.318c0 .297 0 .543.051.837c0 5.365 3.641 8.812 9.155 8.812c5.414 0 8.812-3.544 8.812-9.106c-.051-5.366-3.646-8.91-9.109-8.86Zm31.602 0c-5.02-.1-9.206 3.89-9.352 8.91a9.03 9.03 0 0 0 9.055 9.054h.1c4.528.788 9.106-3.592 9.402-8.858c.243-4.874-4.186-9.106-9.205-9.106Zm43.363.737c-5.711-.245-8.567-2.164-9.992-7.581a54.874 54.874 0 0 1-1.624-10.582c-.395-6.596-.346-13.241-.789-19.837c-1.033-15.651-12.352-21.114-28.794-18.41V76.92c2.607 0 4.626 0 6.645.049c3.495.048 6.153 1.379 6.496 5.268c.345 3.543.345 7.136.69 10.73c.692 7.139 1.083 14.372 2.314 21.41c1.085 5.809 5.07 10.14 10.04 13.684c-8.71 5.857-11.27 14.223-11.714 23.626c-.245 6.448-.394 12.944-.736 19.443c-.297 5.905-2.362 7.824-8.318 7.972c-1.674.05-3.298.198-5.169.297v13.93c3.495 0 6.694.196 9.892 0c9.942-.592 15.947-5.415 17.918-15.063a125.582 125.582 0 0 0 1.476-16.045c.343-4.923.297-9.894.788-14.766c.737-7.63 4.232-10.78 11.862-11.27c.739-.1 1.427-.246 2.118-.492v-15.604c-1.282-.149-2.17-.295-3.103-.346Z"/>
  </symbol>
<!--  -->

  </defs>
</svg>

