<svg width="368" height="521" viewBox="0 0 368 521" fill="none" xmlns="http://www.w3.org/2000/svg">
<ellipse cx="178.469" cy="294.905" rx="29.9748" ry="37.7669" transform="rotate(-31.5579 178.469 294.905)" fill="white"/>
<ellipse cx="178.468" cy="294.905" rx="25.0134" ry="33.2266" transform="rotate(-31.5579 178.468 294.905)" fill="white"/>
<ellipse cx="2.02007" cy="3.17442" rx="2.02007" ry="3.17442" transform="matrix(0.92836 -0.373812 0.372706 0.927093 131.684 241.406)" fill="white"/>
<ellipse cx="2.02007" cy="3.17442" rx="2.02007" ry="3.17442" transform="matrix(-0.759429 0.651817 0.651172 0.757876 152.212 228.286)" fill="white"/>
<path fill-rule="evenodd" clip-rule="evenodd" d="M138.192 228.394C134.802 230.51 129.139 236.021 133.6 241.138C136.59 244.568 136.153 246.636 135.681 248.872C135.272 250.805 134.837 252.863 136.569 256.035C138.142 258.917 140.101 260.411 142.056 261.902C144.744 263.952 147.424 265.996 149.085 271.626C151.38 279.409 163.032 298.593 168.619 307.092L181.286 299.312L181.286 299.312L193.811 291.7C188.842 282.826 177.47 263.723 171.62 258.101C167.499 254.139 167.541 250.889 167.584 247.65C167.617 245.143 167.65 242.641 165.751 239.82C163.722 236.805 161.203 236.251 158.779 235.718C156.004 235.108 153.352 234.525 151.693 230.312C149.206 223.995 141.706 226.484 138.267 228.517L138.192 228.394Z" fill="white"/>
<ellipse cx="4.88203" cy="6.87666" rx="4.88203" ry="6.87666" transform="matrix(-0.550344 0.835582 0.835391 0.548677 138.977 248.72)" fill="white"/>
<ellipse cx="4.88203" cy="6.87666" rx="4.88203" ry="6.87666" transform="matrix(-1.00003 -0.0247954 -0.0263083 0.999312 167.419 237.883)" fill="white"/>
<path d="M185.093 276.919C178.413 286.338 165.675 292.145 159.963 292.927L161.826 295.86C175.2 294.861 184.03 284.727 186.937 279.83L185.093 276.919Z" fill="white"/>
<path d="M186.906 279.722C179.181 291.436 167.484 294.975 161.775 295.826L163.284 298.095C176.668 296.933 186.04 287.931 188.86 283.009L186.906 279.722Z" fill="white"/>
<ellipse opacity="0.2" cx="0.905879" cy="1.42353" rx="0.905879" ry="1.42353" transform="matrix(0.992509 -0.126642 0.125254 0.991564 151.018 229.876)" fill="white"/>
<ellipse opacity="0.2" cx="0.905879" cy="1.42353" rx="0.905879" ry="1.42353" transform="matrix(0.992509 -0.126642 0.125254 0.991564 132.909 241.256)" fill="white"/>
<path d="M139.661 246.526C134.055 238.191 141.425 231.752 141.454 231.879C151.086 229.061 154.833 236.905 155.204 238.177C156.225 241.679 162.867 241.287 163.272 245.337C163.677 249.386 167.668 255.909 169.204 261.217C170.145 264.471 169.623 266.185 168.973 266.935C169.19 266.806 169.106 266.872 168.898 267.017C168.722 267.198 168.541 267.312 168.38 267.37C168.573 267.24 168.762 267.112 168.898 267.017C168.923 266.991 168.948 266.964 168.973 266.935C168.687 267.105 167.882 267.612 166.159 268.719C161.297 271.842 157.058 265.562 148.308 260.756C139.558 255.951 146.668 256.945 139.661 246.526Z" fill="white"/>
<path d="M164.249 265.578C160.09 267.632 153.497 259.656 150.72 255.41C152.823 253.402 157.63 249.457 160.038 249.748C163.047 250.112 169.448 263.009 164.249 265.578Z" fill="white"/>
<path d="M164.378 263.981C166.932 261.956 162.389 256.445 159.798 253.942L154.43 257.205C156.681 260.307 161.823 266.006 164.378 263.981Z" fill="white"/>
<path d="M162.758 262.005C163.081 261.251 158.615 255.78 156.341 253.138L155.238 253.981C157.61 256.97 162.435 262.759 162.758 262.005Z" fill="white"/>
<path d="M147.095 253.059C146.317 245.771 142.853 243.574 141.218 243.387C142.04 235.397 148.76 235.683 152.016 236.825C152.238 244.282 151.888 238.421 159.128 245.747C164.919 251.607 161.805 256.688 159.524 258.496C155.705 259.72 147.873 260.346 147.095 253.059Z" fill="white"/>
<path d="M161.202 248.401C149.672 243.665 148.821 252.775 149.836 257.922C151.46 259.297 155.705 261.323 159.691 258.429C163.677 255.534 162.359 250.537 161.202 248.401Z" fill="white"/>
<path d="M153.494 251.606C152.981 250.918 151.913 249.718 151.743 250.422C151.574 251.127 152.84 251.505 153.494 251.606Z" fill="white"/>
<path d="M154.886 250.764C154.395 250.06 153.593 248.667 154.315 248.729C155.038 248.791 154.997 250.112 154.886 250.764Z" fill="white"/>
<path d="M139.581 220.278L143.942 226.195C142.512 231.572 135.432 234.221 132.071 234.873L127.717 228.779L139.581 220.278Z" fill="white"/>
<path d="M143.942 226.195C145.204 230.055 144.334 236.933 132.055 234.819L143.942 226.195Z" fill="white"/>
<ellipse cx="7.30377" cy="1.259" rx="7.30377" ry="1.259" transform="matrix(0.816711 -0.57849 0.577705 0.815224 126.972 227.719)" fill="white"/>
<path d="M133.713 226.545C133.753 226.54 133.785 226.535 133.816 226.534C134.075 226.522 134.286 226.583 134.483 226.753C134.566 226.825 134.641 226.908 134.719 226.984C134.788 227.052 134.855 227.119 134.925 227.185C134.943 227.203 134.947 227.213 134.927 227.234C134.884 227.277 134.863 227.331 134.88 227.393C134.895 227.448 134.933 227.481 134.984 227.494C135.037 227.508 135.085 227.491 135.127 227.459C135.147 227.442 135.154 227.422 135.15 227.394C135.118 227.176 135.041 226.976 134.925 226.791C134.829 226.637 134.705 226.507 134.588 226.373C134.522 226.296 134.457 226.216 134.388 226.142C134.345 226.094 134.308 226.046 134.282 225.988C134.255 225.929 134.241 225.867 134.243 225.798C134.308 225.806 134.367 225.831 134.416 225.872C134.461 225.911 134.503 225.957 134.541 226.001C134.583 226.05 134.617 226.104 134.655 226.154C134.755 226.286 134.853 226.419 134.957 226.548C135.131 226.761 135.346 226.918 135.603 227.012C135.636 227.026 135.661 227.017 135.685 226.993C135.746 226.933 135.754 226.841 135.704 226.779C135.657 226.721 135.564 226.71 135.497 226.76C135.473 226.778 135.465 226.771 135.452 226.749C135.383 226.638 135.311 226.527 135.241 226.417C135.162 226.291 135.076 226.17 135.035 226.024C134.982 225.831 134.995 225.661 135.057 225.469C135.062 225.455 135.067 225.442 135.074 225.422C135.084 225.435 135.091 225.443 135.097 225.451C135.529 225.987 135.943 226.5 136.375 227.035C136.4 227.066 136.4 227.066 136.371 227.089C136.263 227.179 136.154 227.269 136.046 227.358C136.027 227.374 136.023 227.386 136.035 227.409C136.122 227.582 136.146 227.765 136.101 227.954C136.092 227.994 136.09 228.037 136.085 228.078C135.965 228.057 135.839 228.079 135.719 228.037C135.621 228.003 135.527 227.958 135.448 227.89C135.429 227.875 135.416 227.877 135.4 227.89C135.289 227.982 135.18 228.072 135.069 228.164C135.05 228.18 135.039 228.182 135.021 228.16C134.587 227.622 134.169 227.105 133.735 226.566C133.73 226.566 133.726 226.56 133.713 226.545ZM134.032 226.692C134.031 226.696 134.026 226.699 134.025 226.703C134.033 226.712 134.041 226.722 134.048 226.732C134.257 226.99 134.449 227.228 134.658 227.487C134.692 227.53 134.692 227.53 134.736 227.494C134.752 227.48 134.757 227.469 134.748 227.449C134.723 227.385 134.725 227.319 134.75 227.256C134.76 227.23 134.753 227.215 134.734 227.198C134.645 227.112 134.553 227.027 134.468 226.938C134.378 226.847 134.296 226.79 134.176 226.743C134.128 226.723 134.081 226.71 134.032 226.692ZM135.161 225.765C135.159 225.767 135.156 225.767 135.153 225.769C135.154 225.787 135.155 225.805 135.157 225.822C135.171 225.949 135.179 226.05 135.245 226.16C135.329 226.298 135.416 226.433 135.501 226.57C135.512 226.589 135.525 226.597 135.549 226.593C135.615 226.582 135.678 226.592 135.737 226.629C135.765 226.645 135.784 226.639 135.814 226.602C135.833 226.58 135.811 226.57 135.801 226.558C135.589 226.295 135.393 226.053 135.18 225.789C135.175 225.779 135.168 225.771 135.161 225.765ZM135.199 227.588C135.191 227.592 135.182 227.598 135.17 227.603C135.069 227.655 134.967 227.667 134.867 227.6C134.853 227.591 134.843 227.59 134.832 227.601C134.822 227.609 134.813 227.617 134.803 227.625C134.79 227.636 134.789 227.646 134.8 227.66C134.883 227.764 134.968 227.869 135.053 227.972C135.058 227.977 135.079 227.981 135.084 227.976C135.159 227.916 135.234 227.854 135.307 227.792C135.312 227.787 135.316 227.769 135.312 227.762C135.276 227.705 135.239 227.648 135.199 227.588ZM135.784 227.104C135.834 227.155 135.883 227.202 135.932 227.252C135.946 227.266 135.957 227.257 135.968 227.248C136.038 227.19 136.105 227.132 136.176 227.076C136.198 227.058 136.198 227.044 136.18 227.024C136.103 226.933 136.03 226.839 135.954 226.745C135.919 226.702 135.919 226.702 135.877 226.737C135.865 226.747 135.854 226.756 135.862 226.775C135.903 226.877 135.88 226.97 135.823 227.056C135.81 227.074 135.794 227.089 135.784 227.104ZM135.18 226.954C135.227 227.092 135.273 227.227 135.292 227.373C135.358 227.367 135.42 227.362 135.482 227.354C135.491 227.354 135.502 227.34 135.506 227.33C135.524 227.278 135.536 227.226 135.554 227.175C135.559 227.159 135.556 227.15 135.54 227.143C135.421 227.1 135.313 227.037 135.207 226.968C135.197 226.965 135.188 226.959 135.18 226.954ZM135.547 227.773C135.6 227.85 135.791 227.931 135.85 227.912C135.851 227.91 135.851 227.907 135.851 227.907C135.793 227.835 135.736 227.762 135.678 227.693C135.674 227.687 135.657 227.687 135.651 227.69C135.614 227.715 135.581 227.745 135.547 227.773ZM135.967 227.82C135.998 227.737 135.947 227.532 135.893 227.485C135.863 227.51 135.83 227.537 135.8 227.562C135.782 227.576 135.782 227.588 135.796 227.604C135.843 227.663 135.89 227.721 135.936 227.779C135.945 227.792 135.955 227.805 135.967 227.82ZM135.507 227.624C135.524 227.61 135.545 227.595 135.56 227.578C135.566 227.573 135.568 227.553 135.563 227.55C135.506 227.496 135.425 227.475 135.356 227.509C135.342 227.516 135.337 227.525 135.345 227.539C135.369 227.581 135.395 227.622 135.421 227.665C135.431 227.68 135.444 227.679 135.456 227.669C135.471 227.654 135.489 227.639 135.507 227.624ZM135.758 227.417C135.774 227.403 135.79 227.391 135.806 227.377C135.823 227.365 135.827 227.35 135.81 227.334C135.778 227.303 135.746 227.272 135.713 227.242C135.697 227.227 135.685 227.23 135.673 227.249C135.634 227.307 135.633 227.403 135.675 227.458C135.679 227.463 135.697 227.465 135.703 227.462C135.724 227.447 135.74 227.431 135.758 227.417Z" fill="white"/>
<path d="M139.581 220.278L143.942 226.195C142.512 231.572 135.432 234.221 132.071 234.873L127.717 228.779C127.717 228.779 128.817 228.302 129.441 227.865C130.189 227.341 131.138 226.257 131.138 226.257L138.208 229.218L136.196 222.321C136.196 222.321 137.5 222.163 138.192 221.737C138.862 221.325 139.581 220.278 139.581 220.278Z" fill="white"/>
<ellipse cx="181.206" cy="299.381" rx="14.761" ry="4.01898" transform="matrix(0.852112 -0.524017 0.522702 0.852112 -129.689 139.23)" fill="white"/>
<rect x="162.796" y="300.208" width="33.1004" height="12.95" transform="rotate(-31.5579 162.796 300.208)" fill="white"/>
<path d="M238.204 404.045C220.292 379.161 222.836 371.289 229.508 366.488C236.181 361.687 244.455 361.775 262.368 386.659C280.28 411.543 294.376 456.6 294.376 456.6C274.032 428.339 256.117 428.928 238.204 404.045Z" fill="#FF0000"/>
<path d="M240.399 381.617C222.486 356.733 225.03 348.861 231.702 344.06C238.375 339.259 246.649 339.348 264.562 364.232C282.475 389.115 296.57 434.172 296.57 434.172C276.227 405.912 258.311 406.501 240.399 381.617Z" fill="#FF0000"/>
<path d="M211.412 392.303C193.5 367.419 196.044 359.547 202.716 354.746C209.389 349.945 217.663 350.034 235.576 374.917C253.488 399.801 267.584 444.858 267.584 444.858C247.24 416.598 229.325 417.186 211.412 392.303Z" fill="#FF0000"/>
<rect x="94.0586" y="237.496" width="89.5961" height="175.672" transform="rotate(-31.5579 94.0586 237.496)" fill="#B7B7B7"/>
<ellipse cx="224.078" cy="363.59" rx="44.798" ry="17.7103" transform="rotate(-31.5579 224.078 363.59)" fill="#B7B7B7"/>
<path fill-rule="evenodd" clip-rule="evenodd" d="M166.661 184.507L90.3148 231.398L182.12 380.872C182.133 380.894 182.147 380.916 182.16 380.938C182.174 380.96 182.188 380.982 182.201 381.004L182.255 381.091L182.256 381.09C187.539 389.227 208.649 385.453 229.602 372.584C250.556 359.715 263.467 342.593 258.598 334.201L258.6 334.2L166.661 184.507Z" fill="url(#paint0_linear_5922_571)"/>
<path d="M89.6747 230.359C107.929 260.08 184.378 213.126 166.124 183.405C141.163 142.764 75.3091 122.628 75.3091 122.628C75.3091 122.628 64.5266 189.415 89.6747 230.359Z" fill="url(#paint1_linear_5922_571)"/>
<path d="M135.178 388.974L172.792 365.873L120.813 281.243C120.813 281.243 110.031 348.03 135.178 388.974Z" fill="url(#paint2_linear_5922_571)"/>
<path d="M286.854 295.816L249.241 318.918L197.263 234.288C197.263 234.288 261.707 254.872 286.854 295.816Z" fill="url(#paint3_linear_5922_571)"/>
<ellipse cx="178.469" cy="294.905" rx="29.9748" ry="37.7669" transform="rotate(-31.5579 178.469 294.905)" fill="#EDEDED"/>
<ellipse cx="178.468" cy="294.905" rx="25.0134" ry="33.2266" transform="rotate(-31.5579 178.468 294.905)" fill="#888888"/>
<ellipse cx="2.02007" cy="3.17442" rx="2.02007" ry="3.17442" transform="matrix(0.92836 -0.373812 0.372706 0.927093 131.684 241.406)" fill="black"/>
<ellipse cx="2.02007" cy="3.17442" rx="2.02007" ry="3.17442" transform="matrix(-0.759429 0.651817 0.651172 0.757876 152.212 228.286)" fill="black"/>
<path fill-rule="evenodd" clip-rule="evenodd" d="M138.192 228.394C134.802 230.51 129.139 236.021 133.6 241.138C136.59 244.568 136.153 246.636 135.681 248.872C135.272 250.805 134.837 252.863 136.569 256.035C138.142 258.917 140.101 260.411 142.056 261.902C144.744 263.952 147.424 265.996 149.085 271.626C151.38 279.409 163.032 298.593 168.619 307.092L181.286 299.312L181.286 299.312L193.811 291.7C188.842 282.826 177.47 263.723 171.62 258.101C167.499 254.139 167.541 250.889 167.584 247.65C167.617 245.143 167.65 242.641 165.751 239.82C163.722 236.805 161.203 236.251 158.779 235.718C156.004 235.108 153.352 234.525 151.693 230.312C149.206 223.995 141.706 226.484 138.267 228.517L138.192 228.394Z" fill="white"/>
<ellipse cx="4.88203" cy="6.87666" rx="4.88203" ry="6.87666" transform="matrix(-0.550344 0.835582 0.835391 0.548677 138.977 248.72)" fill="url(#paint4_radial_5922_571)"/>
<ellipse cx="4.88203" cy="6.87666" rx="4.88203" ry="6.87666" transform="matrix(-1.00003 -0.0247954 -0.0263083 0.999312 167.419 237.883)" fill="url(#paint5_radial_5922_571)"/>
<path d="M185.093 276.919C178.413 286.338 165.675 292.145 159.963 292.927L161.826 295.86C175.2 294.861 184.03 284.727 186.937 279.83L185.093 276.919Z" fill="#005BBB"/>
<path d="M186.906 279.722C179.181 291.436 167.484 294.975 161.775 295.826L163.284 298.095C176.668 296.933 186.04 287.931 188.86 283.009L186.906 279.722Z" fill="#FFD500"/>
<ellipse opacity="0.2" cx="0.905879" cy="1.42353" rx="0.905879" ry="1.42353" transform="matrix(0.992509 -0.126642 0.125254 0.991564 151.018 229.876)" fill="white"/>
<ellipse opacity="0.2" cx="0.905879" cy="1.42353" rx="0.905879" ry="1.42353" transform="matrix(0.992509 -0.126642 0.125254 0.991564 132.909 241.256)" fill="white"/>
<path d="M139.661 246.526C134.055 238.191 141.425 231.752 141.454 231.879C151.086 229.061 154.833 236.905 155.204 238.177C156.225 241.679 162.867 241.287 163.272 245.337C163.677 249.386 167.668 255.909 169.204 261.217C170.145 264.471 169.623 266.185 168.973 266.935C169.19 266.806 169.106 266.872 168.898 267.017C168.722 267.198 168.541 267.312 168.38 267.37C168.573 267.24 168.762 267.112 168.898 267.017C168.923 266.991 168.948 266.964 168.973 266.935C168.687 267.105 167.882 267.612 166.159 268.719C161.297 271.842 157.058 265.562 148.308 260.756C139.558 255.951 146.668 256.945 139.661 246.526Z" fill="#FF6B0A"/>
<path d="M164.249 265.578C160.09 267.632 153.497 259.656 150.72 255.41C152.823 253.402 157.63 249.457 160.038 249.748C163.047 250.112 169.448 263.009 164.249 265.578Z" fill="black"/>
<path d="M164.378 263.981C166.932 261.956 162.389 256.445 159.798 253.942L154.43 257.205C156.681 260.307 161.823 266.006 164.378 263.981Z" fill="#956C7C"/>
<path d="M162.758 262.005C163.081 261.251 158.615 255.78 156.341 253.138L155.238 253.981C157.61 256.97 162.435 262.759 162.758 262.005Z" fill="#86616F"/>
<path d="M147.095 253.059C146.317 245.771 142.853 243.574 141.218 243.387C142.04 235.397 148.76 235.683 152.016 236.825C152.238 244.282 151.888 238.421 159.128 245.747C164.919 251.607 161.805 256.688 159.524 258.496C155.705 259.72 147.873 260.346 147.095 253.059Z" fill="#EB6005"/>
<path d="M161.202 248.401C149.672 243.665 148.821 252.775 149.836 257.922C151.46 259.297 155.705 261.323 159.691 258.429C163.677 255.534 162.359 250.537 161.202 248.401Z" fill="#EFE5D5"/>
<path d="M153.494 251.606C152.981 250.918 151.913 249.718 151.743 250.422C151.574 251.127 152.84 251.505 153.494 251.606Z" fill="#DACAB0"/>
<path d="M154.886 250.764C154.395 250.06 153.593 248.667 154.315 248.729C155.038 248.791 154.997 250.112 154.886 250.764Z" fill="#DACAB0"/>
<ellipse cx="181.206" cy="299.381" rx="14.761" ry="4.01898" transform="matrix(0.852112 -0.524017 0.522702 0.852112 -129.689 139.23)" fill="white"/>
<rect x="162.796" y="300.208" width="33.1004" height="12.95" transform="rotate(-31.5579 162.796 300.208)" fill="url(#paint6_linear_5922_571)"/>
<path d="M208.135 154.295L206.089 153.63L207.42 151.94C209.772 148.954 212.782 143.837 214.132 138.281C215.479 132.74 215.135 126.989 211.159 122.365C210.069 121.096 207.939 119.95 204.72 118.925C201.553 117.917 197.57 117.097 193.02 116.327C189.839 115.788 186.376 115.274 182.754 114.737C176.119 113.753 168.952 112.69 162.016 111.251C151.27 109.022 140.731 105.835 133 100.429C125.176 94.9567 120.207 87.1838 120.806 76.0271C121.951 54.7133 127.547 38.0566 135.207 27.3209C142.846 16.6144 152.789 11.5348 162.423 14.3325C165.923 15.3488 173.346 16.7328 183.104 18.5518C185.313 18.9636 187.641 19.3977 190.071 19.8549C203.163 22.3184 219.055 25.4297 234.562 29.2828C250.054 33.1322 265.238 37.7398 276.885 43.2154C282.708 45.9525 287.713 48.9366 291.442 52.1988C295.163 55.4548 297.732 59.0935 298.431 63.1483C300.949 77.7539 299.413 93.9167 295.366 107.467C293.342 114.248 290.677 120.416 287.542 125.433C284.418 130.433 280.768 134.385 276.731 136.595C270.335 140.098 262.108 140.227 254.631 139.107C247.739 138.075 241.257 135.948 236.983 134.128C233.968 138.118 229.35 143.483 224.441 147.713C221.785 150.002 218.986 152.009 216.263 153.271C213.564 154.522 210.727 155.137 208.135 154.295Z" fill="white" stroke="#E3F3FF" stroke-width="3"/>
<path d="M161.435 42.4753L163.024 42.9915L163.569 44.5171L163.982 45.5296L164.921 48.1245L163.219 47.5714L162.574 45.8249L162.321 45.0108L161.435 42.4753ZM166.997 42.5258C166.658 43.5692 166.172 44.3994 165.539 45.0163C164.911 45.6311 164.197 46.0264 163.397 46.2022C162.601 46.3791 161.779 46.3298 160.931 46.0543C160.083 45.7788 159.387 45.335 158.844 44.7228C158.305 44.1085 157.96 43.3674 157.81 42.4997C157.664 41.6298 157.76 40.6747 158.098 39.6345C158.437 38.5911 158.921 37.7621 159.549 37.1473C160.182 36.5304 160.896 36.1335 161.692 35.9566C162.492 35.7807 163.316 35.8305 164.163 36.106C165.011 36.3816 165.705 36.8249 166.246 37.436C166.789 38.0482 167.134 38.7893 167.28 39.6591C167.43 40.5269 167.336 41.4825 166.997 42.5258ZM165.233 41.9528C165.472 41.2183 165.558 40.5616 165.492 39.9824C165.429 39.4012 165.239 38.9158 164.919 38.5262C164.601 38.1335 164.178 37.8516 163.652 37.6806C163.125 37.5095 162.618 37.4893 162.13 37.6198C161.642 37.7472 161.201 38.0272 160.806 38.46C160.415 38.8906 160.1 39.4731 159.862 40.2076C159.623 40.942 159.535 41.5999 159.597 42.1811C159.663 42.7602 159.855 43.2461 160.174 43.6389C160.493 44.0285 160.916 44.3088 161.443 44.4798C161.969 44.6508 162.476 44.6727 162.963 44.5453C163.452 44.4148 163.892 44.1342 164.282 43.7036C164.677 43.2709 164.994 42.6873 165.233 41.9528ZM172.641 46.3357L174.008 42.1275L175.72 42.6837L173.36 49.9463L171.7 49.407L172.12 48.1162L172.044 48.0916C171.748 48.445 171.37 48.69 170.911 48.8266C170.455 48.9642 169.955 48.9444 169.409 48.7672C168.933 48.6126 168.547 48.3703 168.25 48.0403C167.957 47.7081 167.774 47.3055 167.701 46.8323C167.63 46.3559 167.688 45.8277 167.876 45.2477L169.379 40.6235L171.091 41.1796L169.674 45.5391C169.525 45.9993 169.532 46.4059 169.696 46.7589C169.86 47.112 170.147 47.3551 170.557 47.4882C170.809 47.5701 171.073 47.588 171.35 47.5419C171.626 47.4958 171.879 47.376 172.109 47.1824C172.344 46.9867 172.521 46.7045 172.641 46.3357ZM175.12 50.5182L177.48 43.2556L179.191 43.8117L176.831 51.0743L175.12 50.5182ZM178.675 42.5044C178.404 42.4163 178.2 42.2507 178.063 42.0075C177.927 41.7612 177.9 41.5104 177.983 41.255C178.067 40.9966 178.236 40.8092 178.49 40.6931C178.745 40.5737 179.008 40.5581 179.279 40.6462C179.553 40.7353 179.757 40.9025 179.89 41.1478C180.027 41.391 180.053 41.6418 179.969 41.9003C179.886 42.1556 179.717 42.3429 179.462 42.4623C179.212 42.5795 178.949 42.5935 178.675 42.5044ZM181.713 52.8174C180.988 52.5818 180.418 52.2203 180.001 51.733C179.587 51.2466 179.332 50.6773 179.233 50.0251C179.139 49.3707 179.212 48.6763 179.45 47.9419C179.69 47.2043 180.043 46.5994 180.51 46.1274C180.978 45.6521 181.522 45.3409 182.141 45.1937C182.765 45.0443 183.431 45.0848 184.141 45.3153C184.73 45.5068 185.216 45.7851 185.6 46.15C185.987 46.5129 186.252 46.9354 186.395 47.4175C186.539 47.8964 186.545 48.4037 186.413 48.9392L184.777 48.4077C184.825 48.0363 184.762 47.6935 184.589 47.3793C184.42 47.063 184.129 46.8378 183.716 46.7036C183.366 46.5899 183.028 46.5846 182.701 46.6877C182.376 46.7877 182.083 46.9885 181.821 47.2903C181.562 47.5931 181.353 47.9887 181.195 48.4773C181.034 48.9722 180.968 49.4213 180.997 49.8246C181.028 50.2248 181.142 50.5635 181.342 50.8408C181.545 51.116 181.825 51.3114 182.181 51.4271C182.433 51.5091 182.674 51.535 182.903 51.505C183.137 51.4728 183.351 51.3873 183.546 51.2486C183.741 51.1098 183.906 50.9178 184.041 50.6725L185.677 51.2041C185.469 51.7046 185.17 52.1109 184.779 52.4231C184.39 52.7321 183.933 52.9253 183.41 53.0026C182.887 53.0768 182.322 53.015 181.713 52.8174ZM188.577 52.371L189.244 50.3033L189.518 50.3924L193.076 48.3231L195.076 48.9729L190.704 51.5043L190.349 51.3891L188.577 52.371ZM186.276 54.1431L189.423 44.4596L191.134 45.0157L187.988 54.6992L186.276 54.1431ZM190.834 55.6241L189.544 51.5509L191.089 50.72L192.882 56.2893L190.834 55.6241ZM198.715 47.4788L195.568 57.1623L193.857 56.6062L197.003 46.9227L198.715 47.4788ZM197.507 60.8033C197.274 60.7276 197.064 60.6385 196.878 60.5361C196.694 60.438 196.551 60.3463 196.45 60.2611L197.28 59.0568C197.506 59.2102 197.717 59.3171 197.913 59.3774C198.11 59.4378 198.301 59.4321 198.489 59.3605C198.678 59.293 198.869 59.1391 199.062 58.8986L199.336 58.5538L199.111 50.2842L200.927 50.8741L200.819 56.9027L200.894 56.9273L204.355 51.9879L206.175 52.5794L200.622 59.7766C200.362 60.1172 200.075 60.3882 199.762 60.5897C199.448 60.7944 199.105 60.9165 198.733 60.956C198.364 60.9997 197.955 60.9488 197.507 60.8033ZM264.176 79.6164C263.716 79.4669 263.328 79.2503 263.013 78.9665C262.701 78.6806 262.491 78.3405 262.382 77.9462C262.277 77.5529 262.301 77.1183 262.456 76.6423C262.589 76.2325 262.775 75.9182 263.013 75.6995C263.251 75.4807 263.528 75.3334 263.841 75.2577C264.155 75.1819 264.489 75.1563 264.844 75.1809C265.203 75.2033 265.565 75.253 265.93 75.3299C266.37 75.424 266.728 75.4968 267.004 75.5481C267.281 75.5963 267.492 75.6021 267.636 75.5653C267.784 75.5265 267.885 75.4251 267.939 75.2612L267.948 75.2328C268.064 74.8766 268.048 74.5665 267.9 74.3024C267.752 74.0384 267.48 73.8418 267.083 73.7128C266.663 73.5765 266.301 73.5599 265.996 73.6628C265.694 73.7668 265.46 73.9295 265.294 74.1508L263.769 73.4046C264.039 73.0043 264.367 72.7031 264.753 72.501C265.14 72.2958 265.567 72.1872 266.035 72.1752C266.503 72.1602 266.991 72.2351 267.499 72.4C267.849 72.5137 268.184 72.6678 268.504 72.8624C268.824 73.057 269.097 73.2955 269.322 73.5779C269.548 73.857 269.696 74.1855 269.765 74.5634C269.837 74.9423 269.795 75.3729 269.638 75.8551L268.059 80.7158L266.413 80.1812L266.737 79.1835L266.681 79.1651C266.511 79.333 266.303 79.4745 266.057 79.5896C265.814 79.7025 265.534 79.7665 265.215 79.7815C264.901 79.7944 264.555 79.7393 264.176 79.6164ZM265.029 78.5031C265.373 78.6148 265.693 78.6438 265.989 78.5902C266.286 78.5334 266.54 78.4136 266.749 78.2307C266.961 78.0488 267.111 77.8239 267.198 77.5559L267.476 76.7001C267.408 76.7268 267.304 76.7381 267.162 76.7339C267.024 76.7308 266.871 76.7178 266.704 76.695C266.537 76.6721 266.373 76.6466 266.212 76.6185C266.05 76.5904 265.91 76.5658 265.791 76.5447C265.525 76.4964 265.278 76.4789 265.05 76.4921C264.823 76.5054 264.628 76.564 264.465 76.6679C264.304 76.7687 264.187 76.9295 264.115 77.1501C264.013 77.4653 264.051 77.7407 264.228 77.9762C264.406 78.2118 264.673 78.3874 265.029 78.5031ZM272.874 77.5757L271.491 81.8312L269.78 81.275L272.139 74.0124L273.775 74.544L273.374 75.778L273.46 75.8057C273.759 75.4533 274.13 75.2168 274.574 75.096C275.02 74.9763 275.515 75.0045 276.057 75.1807C276.558 75.3435 276.96 75.5926 277.262 75.9278C277.568 76.264 277.757 76.6687 277.829 77.1419C277.905 77.6161 277.848 78.1427 277.656 78.7217L276.153 83.346L274.442 82.7898L275.858 78.4304C276.016 77.9449 276.013 77.5241 275.85 77.1679C275.69 76.8128 275.39 76.5635 274.948 76.4201C274.649 76.3228 274.361 76.3025 274.085 76.3591C273.813 76.4135 273.571 76.5422 273.358 76.7451C273.149 76.9489 272.988 77.2258 272.874 77.5757ZM280.547 84.9147C279.976 84.7293 279.513 84.4168 279.158 83.9772C278.802 83.5376 278.585 82.9963 278.504 82.3533C278.424 81.7104 278.513 80.9902 278.772 80.1927C279.035 79.3857 279.388 78.7479 279.833 78.2791C280.282 77.8082 280.78 77.5047 281.326 77.3685C281.873 77.2291 282.426 77.2501 282.984 77.4314C283.409 77.5696 283.736 77.7558 283.963 77.9899C284.191 78.2209 284.353 78.4633 284.448 78.7173C284.544 78.9681 284.608 79.1961 284.638 79.4013L284.709 79.4244L285.886 75.8025L287.603 76.3602L284.456 86.0437L282.773 85.4968L283.145 84.3525L283.041 84.3187C282.895 84.4666 282.707 84.6127 282.475 84.757C282.244 84.8981 281.969 84.9935 281.65 85.0431C281.331 85.0927 280.963 85.0499 280.547 84.9147ZM281.481 83.6655C281.843 83.7833 282.184 83.786 282.503 83.6735C282.823 83.5579 283.106 83.3451 283.353 83.035C283.6 82.725 283.8 82.3351 283.953 81.8655C284.105 81.3958 284.172 80.9661 284.152 80.5763C284.136 80.1876 284.031 79.8556 283.838 79.5804C283.648 79.3061 283.369 79.1091 283 78.9893C282.619 78.8654 282.268 78.8612 281.948 78.9768C281.629 79.0925 281.347 79.3042 281.104 79.6121C280.861 79.92 280.667 80.2994 280.52 80.7501C280.373 81.204 280.306 81.6301 280.319 82.0283C280.337 82.4243 280.44 82.7663 280.629 83.0541C280.822 83.3399 281.106 83.5437 281.481 83.6655ZM153.25 60.2355L153.557 52.3061L155.302 52.873L154.919 58.3943L154.986 58.4158L157.95 53.7333L159.676 54.2941L159.331 59.7963L159.402 59.8193L162.309 55.1498L164.059 55.7182L159.642 62.3126L157.86 61.7334L158.093 56.383L157.993 56.3507L155.037 60.8162L153.25 60.2355ZM162.894 63.3692L165.254 56.1065L166.913 56.6458L166.52 57.8562L166.596 57.8808C166.864 57.5046 167.196 57.2552 167.592 57.1327C167.991 57.0081 168.399 57.0134 168.815 57.1486C168.909 57.1793 169.014 57.2184 169.127 57.2657C169.245 57.311 169.341 57.3542 169.414 57.3956L168.903 58.9701C168.838 58.9213 168.73 58.8619 168.579 58.7918C168.432 58.7195 168.286 58.6598 168.141 58.6127C167.828 58.5113 167.526 58.488 167.233 58.5426C166.944 58.5951 166.69 58.7165 166.472 58.9068C166.253 59.0971 166.093 59.3468 165.993 59.6557L164.606 63.9253L162.894 63.3692ZM168.173 65.0844L170.533 57.8218L172.245 58.378L169.885 65.6406L168.173 65.0844ZM171.728 57.0707C171.457 56.9826 171.253 56.817 171.116 56.5738C170.98 56.3275 170.954 56.0766 171.037 55.8213C171.121 55.5628 171.289 55.3755 171.543 55.2593C171.798 55.14 172.061 55.1244 172.332 55.2125C172.606 55.3016 172.81 55.4688 172.943 55.7141C173.08 55.9573 173.106 56.2081 173.022 56.4666C172.939 56.7219 172.771 56.9092 172.516 57.0285C172.265 57.1457 172.003 57.1598 171.728 57.0707ZM177.631 60.1282L177.201 61.4521L173.026 60.0956L173.456 58.7717L177.631 60.1282ZM175.052 57.3666L176.764 57.9227L174.549 64.7409C174.474 64.971 174.451 65.1588 174.481 65.3042C174.514 65.4476 174.582 65.5603 174.684 65.6423C174.787 65.7243 174.909 65.7884 175.051 65.8345C175.158 65.8693 175.258 65.8931 175.351 65.9061C175.448 65.92 175.522 65.9283 175.573 65.9311L175.427 67.3629C175.325 67.3647 175.183 67.3569 175.001 67.3394C174.821 67.323 174.609 67.2785 174.364 67.2059C173.932 67.0792 173.567 66.8891 173.269 66.6356C172.973 66.379 172.773 66.0666 172.669 65.6985C172.569 65.3313 172.594 64.9213 172.745 64.4684L175.052 57.3666ZM179.794 69.0171C179.066 68.7805 178.486 68.4249 178.055 67.9502C177.628 67.4734 177.363 66.91 177.261 66.2599C177.159 65.6066 177.232 64.9001 177.479 64.1404C177.722 63.3934 178.077 62.7838 178.544 62.3118C179.015 61.8376 179.558 61.5263 180.175 61.3781C180.792 61.2266 181.447 61.2636 182.141 61.4889C182.588 61.6343 182.987 61.8441 183.337 62.1181C183.692 62.3901 183.973 62.7254 184.181 63.1242C184.393 63.5241 184.512 63.9843 184.538 64.5051C184.565 65.0226 184.475 65.5998 184.268 66.2365L184.097 66.7614L178.144 64.8272L178.519 63.6735L182.832 65.0746C182.935 64.7457 182.959 64.4311 182.903 64.1307C182.848 63.8272 182.72 63.5609 182.52 63.3318C182.322 63.1038 182.059 62.9365 181.731 62.83C181.381 62.7163 181.046 62.7015 180.726 62.7857C180.407 62.8667 180.129 63.0203 179.892 63.2464C179.659 63.4704 179.488 63.7442 179.379 64.0678L179.052 65.075C178.915 65.4974 178.874 65.885 178.93 66.2377C178.987 66.5874 179.129 66.8877 179.354 67.1385C179.58 67.3863 179.879 67.5706 180.251 67.6914C180.5 67.7724 180.737 67.8109 180.961 67.8071C181.186 67.8002 181.395 67.7514 181.589 67.6608C181.782 67.5703 181.95 67.4349 182.092 67.2545L183.632 67.9535C183.393 68.3431 183.081 68.6494 182.695 68.8725C182.313 69.0934 181.875 69.2193 181.381 69.2503C180.887 69.2782 180.358 69.2005 179.794 69.0171ZM190.474 72.4715C189.903 72.2862 189.44 71.9737 189.085 71.534C188.729 71.0944 188.511 70.5532 188.431 69.9102C188.351 69.2673 188.44 68.547 188.699 67.7495C188.961 66.9426 189.315 66.3047 189.76 65.836C190.209 65.3651 190.707 65.0616 191.253 64.9254C191.8 64.786 192.353 64.8069 192.911 64.9882C193.336 65.1265 193.662 65.3127 193.89 65.5468C194.118 65.7777 194.279 66.0202 194.375 66.2742C194.471 66.525 194.534 66.753 194.565 66.9582L194.636 66.9813L195.813 63.3594L197.529 63.9171L194.383 73.6006L192.7 73.0536L193.072 71.9094L192.968 71.8756C192.822 72.0235 192.633 72.1695 192.402 72.3138C192.171 72.455 191.896 72.5504 191.577 72.5999C191.258 72.6495 190.89 72.6067 190.474 72.4715ZM191.408 71.2224C191.77 71.3402 192.111 71.3428 192.43 71.2304C192.75 71.1147 193.033 70.9019 193.28 70.5919C193.527 70.2819 193.727 69.892 193.88 69.4223C194.032 68.9527 194.099 68.523 194.079 68.1332C194.062 67.7445 193.958 67.4125 193.765 67.1372C193.575 66.863 193.296 66.666 192.927 66.5462C192.546 66.4222 192.195 66.4181 191.875 66.5337C191.555 66.6493 191.274 66.8611 191.031 67.169C190.788 67.4769 190.593 67.8562 190.447 68.307C190.3 68.7609 190.233 69.1869 190.246 69.5851C190.264 69.9812 190.367 70.3232 190.556 70.611C190.749 70.8967 191.033 71.1005 191.408 71.2224ZM199.329 75.3644C198.62 75.1339 198.056 74.7782 197.637 74.2971C197.218 73.8161 196.957 73.2484 196.852 72.5941C196.751 71.9408 196.822 71.2391 197.066 70.4889C197.309 69.7387 197.665 69.1275 198.132 68.6555C198.602 68.1844 199.148 67.8774 199.769 67.7343C200.391 67.5912 201.056 67.6349 201.765 67.8654C202.475 68.0958 203.039 68.4515 203.457 68.9326C203.876 69.4137 204.136 69.9824 204.236 70.6388C204.34 71.2963 204.269 72.0001 204.026 72.7503C203.782 73.5005 203.425 74.1096 202.956 74.5775C202.49 75.0464 201.947 75.3524 201.325 75.4954C200.704 75.6385 200.038 75.5948 199.329 75.3644ZM199.784 73.9963C200.168 74.1212 200.524 74.1201 200.851 73.9929C201.18 73.8625 201.465 73.6381 201.708 73.3198C201.954 73.0024 202.149 72.6231 202.292 72.1818C202.436 71.7373 202.502 71.3144 202.49 70.9131C202.482 70.5096 202.383 70.1587 202.194 69.8604C202.005 69.562 201.719 69.3504 201.334 69.2254C200.94 69.0974 200.577 69.0981 200.246 69.2274C199.918 69.3578 199.63 69.5832 199.383 69.9037C199.14 70.2221 198.947 70.6035 198.802 71.048C198.659 71.4893 198.592 71.9101 198.601 72.3104C198.614 72.7117 198.715 73.0616 198.903 73.3599C199.096 73.6561 199.39 73.8682 199.784 73.9963ZM205.599 77.2447L205.906 69.3153L207.651 69.8822L207.268 75.4035L207.335 75.4251L210.299 70.7425L212.025 71.3033L211.68 76.8055L211.751 76.8285L214.658 72.159L216.408 72.7275L211.991 79.3218L210.209 78.7426L210.442 73.3922L210.342 73.3599L207.386 77.8254L205.599 77.2447ZM218.337 76.6791L216.955 80.9345L215.243 80.3784L217.603 73.1158L219.239 73.6473L218.838 74.8814L218.923 74.9091C219.222 74.5567 219.593 74.3201 220.037 74.1994C220.484 74.0797 220.978 74.1079 221.52 74.284C222.021 74.4469 222.423 74.6959 222.725 75.0311C223.031 75.3673 223.22 75.7721 223.293 76.2453C223.369 76.7195 223.311 77.2461 223.119 77.8251L221.617 82.4493L219.905 81.8932L221.322 77.5337C221.479 77.0483 221.477 76.6275 221.314 76.2713C221.154 75.9161 220.853 75.6669 220.412 75.5235C220.112 75.4262 219.824 75.4058 219.548 75.4624C219.276 75.5169 219.034 75.6456 218.822 75.8484C218.612 76.0523 218.451 76.3292 218.337 76.6791ZM226.838 87.1569C226.605 87.0811 226.395 86.9921 226.209 86.8897C226.025 86.7915 225.882 86.6999 225.781 86.6147L226.611 85.4104C226.837 85.5638 227.048 85.6707 227.244 85.731C227.441 85.7914 227.632 85.7857 227.819 85.7141C228.009 85.6466 228.2 85.4926 228.393 85.2522L228.667 84.9074L228.442 76.6377L230.258 77.2277L230.15 83.2563L230.225 83.2809L233.686 78.3415L235.506 78.933L229.953 86.1302C229.692 86.4707 229.406 86.7418 229.093 86.9433C228.779 87.148 228.436 87.2701 228.064 87.3096C227.695 87.3532 227.286 87.3024 226.838 87.1569ZM237.206 87.6713C236.497 87.4409 235.933 87.0851 235.514 86.6041C235.095 86.123 234.834 85.5553 234.729 84.9011C234.628 84.2478 234.699 83.5461 234.943 82.7958C235.186 82.0456 235.542 81.4345 236.009 80.9624C236.479 80.4914 237.025 80.1843 237.646 80.0413C238.268 79.8982 238.933 79.9419 239.642 80.1723C240.352 80.4028 240.916 80.7585 241.334 81.2396C241.753 81.7206 242.013 82.2894 242.113 82.9458C242.216 83.6032 242.146 84.3071 241.903 85.0573C241.659 85.8075 241.302 86.4165 240.833 86.8844C240.367 87.3533 239.823 87.6593 239.202 87.8024C238.58 87.9455 237.915 87.9018 237.206 87.6713ZM237.661 86.3032C238.045 86.4282 238.401 86.427 238.728 86.2998C239.056 86.1695 239.342 85.9451 239.585 85.6267C239.831 85.3094 240.025 84.93 240.169 84.4887C240.313 84.0443 240.379 83.6214 240.367 83.22C240.358 82.8166 240.26 82.4657 240.071 82.1673C239.882 81.869 239.596 81.6574 239.211 81.5324C238.817 81.4044 238.454 81.405 238.123 81.5344C237.795 81.6647 237.507 81.8902 237.26 82.2107C237.017 82.5291 236.824 82.9105 236.679 83.3549C236.536 83.7962 236.469 84.217 236.478 84.6174C236.491 85.0187 236.591 85.3685 236.78 85.6669C236.973 85.9631 237.267 86.1752 237.661 86.3032ZM247.806 87.5818L249.173 83.3737L250.885 83.9298L248.525 91.1924L246.866 90.6532L247.285 89.3624L247.209 89.3378C246.913 89.6912 246.536 89.9361 246.077 90.0727C245.621 90.2104 245.12 90.1906 244.575 90.0134C244.099 89.8587 243.712 89.6164 243.415 89.2864C243.122 88.9543 242.94 88.5516 242.867 88.0784C242.795 87.6021 242.853 87.0739 243.042 86.4939L244.544 81.8696L246.256 82.4258L244.84 86.7852C244.69 87.2454 244.697 87.6521 244.861 88.0051C245.026 88.3581 245.312 88.6012 245.722 88.7343C245.974 88.8163 246.239 88.8342 246.515 88.7881C246.791 88.742 247.045 88.6221 247.275 88.4286C247.509 88.2329 247.686 87.9506 247.806 87.5818ZM250.285 91.7643L252.645 84.5017L254.305 85.0409L253.911 86.2514L253.987 86.276C254.256 85.8997 254.588 85.6504 254.983 85.5279C255.382 85.4033 255.79 85.4086 256.206 85.5438C256.301 85.5745 256.405 85.6135 256.518 85.6609C256.636 85.7061 256.732 85.7494 256.806 85.7908L256.294 87.3653C256.23 87.3165 256.122 87.2571 255.97 87.1869C255.823 87.1147 255.677 87.055 255.532 87.0079C255.22 86.9065 254.917 86.8831 254.624 86.9377C254.335 86.9902 254.082 87.1117 253.863 87.302C253.644 87.4923 253.485 87.7419 253.384 88.0508L251.997 92.3205L250.285 91.7643ZM152.793 68.8811L152.363 70.205L148.188 68.8485L148.618 67.5245L152.793 68.8811ZM150.214 66.1195L151.925 66.6756L149.71 73.4938C149.635 73.7239 149.613 73.9117 149.642 74.0571C149.676 74.2005 149.744 74.3131 149.846 74.3952C149.948 74.4772 150.07 74.5413 150.212 74.5873C150.319 74.6222 150.42 74.646 150.513 74.659C150.609 74.6729 150.683 74.6812 150.735 74.684L150.588 76.1158C150.487 76.1176 150.345 76.1098 150.162 76.0923C149.983 76.0759 149.771 76.0314 149.526 75.9588C149.093 75.8321 148.728 75.642 148.431 75.3885C148.134 75.1319 147.934 74.8195 147.831 74.4514C147.731 74.0842 147.756 73.6742 147.906 73.2213L150.214 66.1195ZM153.907 77.4345C153.447 77.2849 153.059 77.0683 152.743 76.7845C152.432 76.4987 152.222 76.1586 152.113 75.7643C152.007 75.371 152.032 74.9363 152.186 74.4603C152.319 74.0506 152.505 73.7363 152.743 73.5175C152.982 73.2987 153.258 73.1515 153.572 73.0757C153.886 73 154.22 72.9744 154.574 72.9989C154.933 73.0214 155.295 73.071 155.66 73.1479C156.1 73.242 156.458 73.3148 156.734 73.3662C157.011 73.4144 157.222 73.4201 157.366 73.3834C157.515 73.3445 157.616 73.2431 157.669 73.0792L157.678 73.0508C157.794 72.6946 157.778 72.3845 157.63 72.1205C157.483 71.8564 157.21 71.6598 156.813 71.5308C156.394 71.3946 156.031 71.3779 155.726 71.4809C155.424 71.5848 155.19 71.7475 155.024 71.9689L153.5 71.2226C153.769 70.8223 154.097 70.5211 154.483 70.319C154.871 70.1138 155.298 70.0052 155.765 69.9933C156.234 69.9782 156.722 70.0531 157.229 70.218C157.579 70.3317 157.914 70.4858 158.234 70.6805C158.554 70.8751 158.827 71.1135 159.052 71.3959C159.279 71.6751 159.426 72.0036 159.495 72.3814C159.567 72.7603 159.525 73.1909 159.368 73.6732L157.789 78.5338L156.144 77.9992L156.468 77.0015L156.411 76.9831C156.241 77.151 156.033 77.2925 155.787 77.4076C155.545 77.5206 155.264 77.5845 154.946 77.5995C154.631 77.6124 154.285 77.5574 153.907 77.4345ZM154.76 76.3212C155.103 76.4328 155.423 76.4618 155.72 76.4082C156.017 76.3514 156.27 76.2316 156.479 76.0487C156.692 75.8668 156.842 75.6419 156.929 75.3739L157.207 74.5181C157.139 74.5449 157.034 74.5561 156.893 74.552C156.754 74.5488 156.602 74.5358 156.435 74.513C156.268 74.4901 156.104 74.4647 155.942 74.4365C155.78 74.4084 155.64 74.3838 155.522 74.3627C155.255 74.3144 155.008 74.2969 154.781 74.3102C154.553 74.3234 154.358 74.382 154.196 74.486C154.034 74.5868 153.917 74.7475 153.846 74.9681C153.743 75.2834 153.781 75.5587 153.959 75.7943C154.137 76.0298 154.404 76.2054 154.76 76.3212ZM166.986 75.6152L165.371 75.2784C165.378 75.1065 165.349 74.9332 165.283 74.7587C165.221 74.5852 165.113 74.4261 164.957 74.2816C164.802 74.1371 164.592 74.0219 164.327 73.9358C163.971 73.8201 163.647 73.8 163.354 73.8756C163.064 73.9522 162.881 74.114 162.804 74.3609C162.732 74.571 162.754 74.7679 162.868 74.9515C162.986 75.1362 163.216 75.3309 163.557 75.5359L164.709 76.2032C165.348 76.5746 165.783 76.9754 166.013 77.4054C166.245 77.8366 166.279 78.3127 166.113 78.8338C165.961 79.2899 165.696 79.6498 165.318 79.9137C164.943 80.1754 164.491 80.3282 163.961 80.372C163.431 80.4159 162.864 80.3395 162.258 80.1428C161.37 79.854 160.714 79.4356 160.293 78.8874C159.873 78.3362 159.719 77.7095 159.832 77.0074L161.554 77.389C161.523 77.7414 161.603 78.0411 161.795 78.288C161.986 78.535 162.279 78.7225 162.673 78.8505C163.08 78.9826 163.433 79.0051 163.733 78.9179C164.037 78.8318 164.228 78.6657 164.308 78.4199C164.376 78.2118 164.351 78.0139 164.234 77.8261C164.121 77.6394 163.909 77.4555 163.598 77.2744L162.444 76.6119C161.794 76.2405 161.358 75.8288 161.136 75.3766C160.914 74.9213 160.891 74.4294 161.066 73.9008C161.209 73.4522 161.456 73.1039 161.808 72.856C162.165 72.6059 162.593 72.4627 163.093 72.4264C163.597 72.388 164.139 72.4631 164.719 72.6515C165.57 72.928 166.181 73.3269 166.551 73.8482C166.925 74.3705 167.07 74.9595 166.986 75.6152ZM169.118 79.6954L169.785 77.6276L170.059 77.7167L173.617 75.6474L175.617 76.2972L171.245 78.8287L170.891 78.7134L169.118 79.6954ZM166.818 81.4674L169.964 71.7839L171.676 72.3401L168.529 82.0235L166.818 81.4674ZM171.376 82.9484L170.085 78.8752L171.631 78.0443L173.423 83.6136L171.376 82.9484ZM181.874 80.4526L180.259 80.1159C180.266 79.9439 180.237 79.7707 180.171 79.5961C180.109 79.4226 180.001 79.2636 179.846 79.1191C179.69 78.9746 179.48 78.8593 179.216 78.7733C178.859 78.6575 178.535 78.6375 178.242 78.713C177.952 78.7897 177.769 78.9514 177.692 79.1983C177.62 79.4085 177.642 79.6054 177.756 79.789C177.874 79.9736 178.104 80.1684 178.445 80.3733L179.598 81.0406C180.237 81.412 180.671 81.8128 180.901 82.2429C181.133 82.674 181.167 83.1501 181.001 83.6713C180.849 84.1273 180.584 84.4873 180.206 84.7511C179.832 85.0128 179.379 85.1656 178.849 85.2095C178.319 85.2533 177.752 85.1769 177.147 84.9803C176.258 84.6915 175.603 84.273 175.181 83.7249C174.761 83.1736 174.607 82.5469 174.72 81.8449L176.442 82.2264C176.411 82.5788 176.491 82.8785 176.683 83.1255C176.874 83.3724 177.167 83.5599 177.561 83.6879C177.968 83.8201 178.321 83.8425 178.621 83.7554C178.925 83.6692 179.116 83.5032 179.196 83.2573C179.264 83.0493 179.239 82.8514 179.123 82.6636C179.009 82.4768 178.797 82.2929 178.486 82.1119L177.332 81.4493C176.682 81.0779 176.246 80.6662 176.024 80.214C175.803 79.7587 175.779 79.2668 175.955 78.7383C176.097 78.2896 176.344 77.9414 176.697 77.6934C177.053 77.4433 177.481 77.3002 177.981 77.2639C178.485 77.2255 179.027 77.3005 179.607 77.4889C180.458 77.7655 181.069 78.1644 181.44 78.6856C181.814 79.2079 181.958 79.7969 181.874 80.4526ZM191.047 81.3106L190.617 82.6345L186.323 81.2395L186.754 79.9156L191.047 81.3106ZM185.467 87.527L188.05 79.5788C188.208 79.0902 188.441 78.7163 188.749 78.4572C189.059 78.1991 189.412 78.0455 189.808 77.9964C190.204 77.9472 190.611 77.9908 191.031 78.127C191.327 78.2233 191.582 78.3324 191.797 78.4545C192.012 78.5765 192.168 78.6744 192.266 78.7481L191.496 79.9614C191.43 79.9158 191.346 79.864 191.243 79.8061C191.141 79.745 191.022 79.6925 190.886 79.6484C190.568 79.545 190.318 79.549 190.135 79.6604C189.957 79.7697 189.821 79.9662 189.729 80.2499L187.183 88.0847L185.467 87.527ZM192.876 90.0912C192.167 89.8608 191.603 89.505 191.184 89.0239C190.766 88.5429 190.504 87.9752 190.399 87.3209C190.298 86.6677 190.369 85.9659 190.613 85.2157C190.857 84.4655 191.212 83.8543 191.679 83.3823C192.149 82.9112 192.695 82.6042 193.317 82.4611C193.938 82.318 194.604 82.3617 195.313 82.5922C196.022 82.8226 196.586 83.1784 197.005 83.6594C197.424 84.1405 197.683 84.7092 197.783 85.3656C197.887 86.0231 197.817 86.7269 197.573 87.4771C197.329 88.2274 196.973 88.8364 196.504 89.3043C196.038 89.7732 195.494 90.0792 194.872 90.2223C194.251 90.3653 193.586 90.3216 192.876 90.0912ZM193.331 88.7231C193.716 88.848 194.072 88.8469 194.399 88.7197C194.727 88.5893 195.012 88.365 195.255 88.0466C195.501 87.7292 195.696 87.3499 195.839 86.9086C195.984 86.4641 196.05 86.0412 196.037 85.6399C196.029 85.2364 195.93 84.8855 195.742 84.5872C195.553 84.2889 195.266 84.0772 194.881 83.9523C194.487 83.8242 194.125 83.8249 193.793 83.9542C193.465 84.0846 193.178 84.31 192.931 84.6305C192.688 84.9489 192.494 85.3303 192.35 85.7748C192.206 86.2161 192.139 86.6369 192.149 87.0372C192.161 87.4386 192.262 87.7884 192.451 88.0867C192.644 88.3829 192.937 88.595 193.331 88.7231ZM197.855 91.5521L200.215 84.2895L201.875 84.8287L201.481 86.0392L201.557 86.0637C201.826 85.6875 202.157 85.4382 202.553 85.3157C202.952 85.1911 203.36 85.1964 203.776 85.3316C203.871 85.3623 203.975 85.4013 204.088 85.4487C204.206 85.4939 204.302 85.5372 204.375 85.5786L203.864 87.1531C203.799 87.1043 203.692 87.0448 203.54 86.9747C203.393 86.9025 203.247 86.8428 203.102 86.7957C202.79 86.6943 202.487 86.6709 202.194 86.7255C201.905 86.778 201.651 86.8994 201.433 87.0898C201.214 87.2801 201.054 87.5297 200.954 87.8386L199.567 92.1082L197.855 91.5521ZM212.423 88.2562L211.993 89.5801L207.818 88.2236L208.248 86.8997L212.423 88.2562ZM209.844 85.4946L211.556 86.0507L209.341 92.8689C209.266 93.099 209.243 93.2868 209.273 93.4322C209.306 93.5756 209.374 93.6883 209.476 93.7703C209.579 93.8523 209.701 93.9164 209.843 93.9625C209.95 93.9973 210.05 94.0212 210.143 94.0341C210.24 94.048 210.314 94.0564 210.365 94.0591L210.219 95.4909C210.117 95.4928 209.975 95.4849 209.793 95.4674C209.613 95.451 209.401 95.4065 209.157 95.3339C208.724 95.2072 208.359 95.0172 208.061 94.7637C207.765 94.507 207.565 94.1946 207.461 93.8265C207.361 93.4593 207.386 93.0493 207.537 92.5964L209.844 85.4946ZM214.745 92.3354L213.363 96.5908L211.651 96.0347L214.797 86.3512L216.471 86.895L215.284 90.55L215.369 90.5776C215.672 90.2232 216.04 89.9856 216.473 89.8649C216.911 89.7421 217.406 89.7708 217.961 89.9511C218.466 90.115 218.871 90.3634 219.178 90.6965C219.484 91.0296 219.674 91.4327 219.746 91.9059C219.822 92.3801 219.765 92.9104 219.575 93.4967L218.072 98.121L216.36 97.5648L217.777 93.2054C217.936 92.7168 217.933 92.296 217.769 91.9429C217.609 91.5878 217.304 91.337 216.853 91.1905C216.55 91.0922 216.258 91.0703 215.975 91.1249C215.697 91.1773 215.45 91.3044 215.234 91.5062C215.022 91.7091 214.859 91.9855 214.745 92.3354ZM222.986 99.8744C222.258 99.6378 221.678 99.2822 221.247 98.8075C220.82 98.3307 220.555 97.7672 220.453 97.1171C220.351 96.4639 220.424 95.7574 220.671 94.9977C220.913 94.2506 221.268 93.6411 221.735 93.169C222.207 92.6948 222.75 92.3836 223.367 92.2353C223.984 92.0839 224.639 92.1209 225.333 92.3462C225.78 92.4916 226.179 92.7014 226.529 92.9754C226.883 93.2473 227.165 93.5827 227.373 93.9815C227.585 94.3813 227.704 94.8416 227.73 95.3623C227.757 95.8799 227.667 96.4571 227.46 97.0938L227.289 97.6186L221.336 95.6844L221.711 94.5307L226.023 95.9318C226.127 95.603 226.151 95.2884 226.095 94.988C226.04 94.6844 225.912 94.4181 225.711 94.1891C225.514 93.961 225.251 93.7937 224.923 93.6872C224.573 93.5735 224.238 93.5588 223.918 93.643C223.599 93.724 223.321 93.8776 223.084 94.1037C222.85 94.3277 222.68 94.6015 222.571 94.9251L222.244 95.9322C222.107 96.3546 222.066 96.7422 222.122 97.095C222.179 97.4447 222.32 97.7449 222.546 97.9958C222.772 98.2436 223.071 98.4279 223.443 98.5487C223.692 98.6296 223.928 98.6682 224.153 98.6644C224.378 98.6574 224.587 98.6087 224.78 98.5181C224.974 98.4276 225.141 98.2921 225.284 98.1118L226.823 98.8108C226.585 99.2004 226.273 99.5067 225.887 99.7297C225.505 99.9507 225.067 100.077 224.572 100.108C224.079 100.135 223.55 100.058 222.986 99.8744ZM233.666 103.329C233.095 103.143 232.632 102.831 232.277 102.391C231.921 101.952 231.703 101.41 231.623 100.767C231.543 100.125 231.632 99.4043 231.891 98.6068C232.153 97.7999 232.507 97.162 232.952 96.6932C233.401 96.2224 233.899 95.9188 234.445 95.7826C234.992 95.6433 235.545 95.6642 236.102 95.8455C236.528 95.9838 236.854 96.17 237.081 96.4041C237.31 96.635 237.471 96.8775 237.566 97.1315C237.663 97.3823 237.726 97.6103 237.757 97.8155L237.828 97.8385L239.005 94.2167L240.721 94.7744L237.575 104.458L235.892 103.911L236.263 102.767L236.159 102.733C236.014 102.881 235.825 103.027 235.594 103.171C235.363 103.312 235.088 103.408 234.769 103.457C234.45 103.507 234.082 103.464 233.666 103.329ZM234.6 102.08C234.962 102.197 235.303 102.2 235.622 102.088C235.941 101.972 236.225 101.759 236.472 101.449C236.719 101.139 236.919 100.749 237.072 100.28C237.224 99.8099 237.291 99.3802 237.271 98.9905C237.254 98.6017 237.15 98.2697 236.957 97.9945C236.767 97.7203 236.488 97.5233 236.119 97.4034C235.738 97.2795 235.387 97.2753 235.067 97.391C234.747 97.5066 234.466 97.7184 234.223 98.0263C233.98 98.3342 233.785 98.7135 233.639 99.1643C233.491 99.6182 233.424 100.044 233.438 100.442C233.456 100.838 233.559 101.18 233.748 101.468C233.94 101.754 234.224 101.958 234.6 102.08ZM241.441 105.876C240.981 105.727 240.593 105.51 240.277 105.226C239.966 104.94 239.756 104.6 239.647 104.206C239.541 103.813 239.566 103.378 239.721 102.902C239.854 102.492 240.039 102.178 240.278 101.959C240.516 101.74 240.792 101.593 241.106 101.517C241.42 101.442 241.754 101.416 242.109 101.441C242.467 101.463 242.829 101.513 243.195 101.59C243.634 101.684 243.992 101.756 244.269 101.808C244.546 101.856 244.756 101.862 244.901 101.825C245.049 101.786 245.15 101.685 245.203 101.521L245.213 101.492C245.328 101.136 245.312 100.826 245.165 100.562C245.017 100.298 244.745 100.101 244.347 99.9724C243.928 99.8362 243.566 99.8196 243.261 99.9225C242.958 100.026 242.724 100.189 242.558 100.411L241.034 99.6643C241.303 99.2639 241.631 98.9627 242.018 98.7607C242.405 98.5554 242.832 98.4468 243.3 98.4349C243.768 98.4198 244.256 98.4947 244.763 98.6596C245.113 98.7733 245.448 98.9275 245.768 99.1221C246.089 99.3167 246.361 99.5552 246.587 99.8375C246.813 100.117 246.961 100.445 247.03 100.823C247.102 101.202 247.059 101.633 246.903 102.115L245.323 106.975L243.678 106.441L244.002 105.443L243.945 105.425C243.776 105.593 243.568 105.734 243.321 105.849C243.079 105.962 242.799 106.026 242.48 106.041C242.166 106.054 241.819 105.999 241.441 105.876ZM242.294 104.763C242.638 104.874 242.958 104.903 243.254 104.85C243.551 104.793 243.804 104.673 244.014 104.49C244.226 104.308 244.376 104.084 244.463 103.816L244.741 102.96C244.673 102.986 244.568 102.998 244.427 102.994C244.288 102.99 244.136 102.977 243.969 102.955C243.802 102.932 243.638 102.906 243.476 102.878C243.315 102.85 243.175 102.825 243.056 102.804C242.789 102.756 242.542 102.739 242.315 102.752C242.088 102.765 241.893 102.824 241.73 102.928C241.568 103.028 241.452 103.189 241.38 103.41C241.278 103.725 241.315 104 241.493 104.236C241.671 104.471 241.938 104.647 242.294 104.763ZM246.963 110.519C246.73 110.444 246.52 110.354 246.334 110.252C246.15 110.154 246.007 110.062 245.906 109.977L246.736 108.773C246.962 108.926 247.173 109.033 247.369 109.093C247.566 109.154 247.757 109.148 247.944 109.076C248.134 109.009 248.325 108.855 248.518 108.615L248.792 108.27L248.567 100L250.383 100.59L250.275 106.619L250.35 106.643L253.811 101.704L255.631 102.295L250.078 109.493C249.817 109.833 249.531 110.104 249.218 110.306C248.904 110.51 248.561 110.632 248.189 110.672C247.82 110.716 247.411 110.665 246.963 110.519ZM259.697 100.94L257.319 107.726L255.797 107.232L257.867 100.345L259.697 100.94ZM255.6 110.429C255.313 110.336 255.1 110.155 254.96 109.887C254.824 109.62 254.803 109.341 254.897 109.051C254.99 108.767 255.169 108.558 255.437 108.421C255.707 108.286 255.986 108.265 256.272 108.358C256.553 108.45 256.763 108.629 256.902 108.898C257.045 109.167 257.07 109.443 256.978 109.727C256.915 109.919 256.81 110.079 256.661 110.204C256.515 110.331 256.348 110.416 256.159 110.46C255.975 110.501 255.789 110.491 255.6 110.429Z" fill="#111111"/>
<path d="M210.801 62.2683C210.076 62.0328 209.531 61.68 209.168 61.2101C208.805 60.7401 208.622 60.1944 208.618 59.5729C208.619 58.9492 208.8 58.2901 209.161 57.5956C209.521 56.8969 209.98 56.3264 210.538 55.8841C211.101 55.4396 211.72 55.1529 212.396 55.0241C213.073 54.8921 213.767 54.9414 214.476 55.1718C215.065 55.3634 215.533 55.6355 215.878 55.9882C216.228 56.3387 216.441 56.7443 216.518 57.2049C216.599 57.6634 216.531 58.1466 216.314 58.6545L214.673 58.1214C214.78 57.7694 214.766 57.4425 214.631 57.1406C214.496 56.8356 214.226 56.617 213.819 56.4849C213.466 56.3702 213.111 56.3592 212.753 56.4521C212.396 56.5418 212.059 56.7283 211.74 57.0116C211.422 57.295 211.143 57.6681 210.906 58.1311C210.663 58.5993 210.526 59.0254 210.496 59.4093C210.469 59.791 210.54 60.1154 210.708 60.3824C210.879 60.6473 211.143 60.8377 211.5 60.9534C211.752 61.0353 212.002 61.0644 212.25 61.0405C212.499 61.0134 212.736 60.9351 212.959 60.8055C213.186 60.677 213.389 60.4973 213.568 60.2664L215.204 60.7979C214.908 61.2697 214.53 61.6505 214.07 61.9401C213.614 62.2276 213.107 62.4044 212.549 62.4705C211.992 62.5334 211.409 62.466 210.801 62.2683ZM218.523 64.7775C217.807 64.545 217.263 64.1938 216.889 63.724C216.519 63.2551 216.33 62.7042 216.323 62.0712C216.316 61.4381 216.497 60.7649 216.865 60.0515C217.229 59.3475 217.687 58.7765 218.237 58.3384C218.79 57.9013 219.398 57.6216 220.062 57.4991C220.73 57.3746 221.415 57.4265 222.118 57.6549C222.834 57.8874 223.376 58.2396 223.745 58.7116C224.116 59.1805 224.304 59.7314 224.311 60.3644C224.321 60.9985 224.142 61.6754 223.772 62.3951C223.411 63.0969 222.953 63.6643 222.398 64.0972C221.846 64.5311 221.237 64.8109 220.573 64.9365C219.909 65.0589 219.226 65.0059 218.523 64.7775ZM219.11 63.4524C219.508 63.5815 219.891 63.5875 220.26 63.4704C220.633 63.3512 220.975 63.1401 221.286 62.8369C221.602 62.5316 221.87 62.1658 222.092 61.7397C222.303 61.3272 222.433 60.9337 222.481 60.5591C222.531 60.1814 222.481 59.8532 222.331 59.5745C222.185 59.2937 221.921 59.0913 221.54 58.9673C221.143 58.8383 220.755 58.8344 220.378 58.9557C220.005 59.0749 219.662 59.2877 219.35 59.594C219.039 59.8972 218.774 60.2623 218.555 60.6896C218.341 61.101 218.21 61.494 218.161 61.8685C218.113 62.2431 218.163 62.5697 218.313 62.8484C218.463 63.1272 218.729 63.3285 219.11 63.4524ZM223.488 66.2338L227.058 59.3645L228.699 59.8976L228.09 61.0641L228.179 61.0933C228.535 60.7489 228.945 60.523 229.408 60.4157C229.873 60.3053 230.348 60.329 230.833 60.4867C231.322 60.6454 231.677 60.8932 231.899 61.2301C232.124 61.5648 232.205 61.9484 232.142 62.3807L232.217 62.4053C232.576 62.0724 233.006 61.8548 233.506 61.7524C234.01 61.6512 234.526 61.6865 235.056 61.8586C235.718 62.0737 236.157 62.4498 236.372 62.9869C236.588 63.524 236.497 64.1756 236.098 64.9416L233.701 69.5522L231.989 68.9961L234.262 64.638C234.478 64.2098 234.516 63.8578 234.375 63.5822C234.239 63.3044 233.998 63.1092 233.651 62.9965C233.238 62.8624 232.853 62.8784 232.496 63.0446C232.142 63.2119 231.866 63.4917 231.669 63.8842L229.436 68.1665L227.757 67.6211L230.063 63.1951C230.242 62.8385 230.273 62.5175 230.156 62.2322C230.043 61.948 229.805 61.747 229.443 61.6292C229.197 61.5493 228.942 61.5361 228.677 61.5894C228.412 61.6428 228.164 61.7574 227.933 61.9331C227.705 62.1067 227.52 62.334 227.377 62.615L225.204 66.7915L223.488 66.2338ZM238.583 71.2953C237.854 71.0587 237.302 70.7118 236.924 70.2545C236.547 69.7941 236.353 69.2537 236.342 68.6333C236.336 68.0107 236.519 67.3401 236.892 66.6214C237.257 65.9143 237.721 65.3401 238.283 64.8987C238.845 64.4542 239.461 64.1666 240.131 64.0357C240.805 63.9027 241.487 63.9484 242.178 64.1727C242.625 64.3181 243.013 64.5243 243.341 64.7911C243.67 65.0549 243.915 65.3785 244.076 65.7619C244.238 66.1453 244.292 66.5846 244.239 67.0797C244.187 67.5717 244.004 68.1186 243.69 68.7206L243.439 69.2193L237.482 67.2835L238.041 66.1898L242.353 67.5909C242.516 67.2815 242.592 66.9838 242.58 66.6977C242.57 66.4085 242.478 66.154 242.306 65.9341C242.133 65.7143 241.882 65.5506 241.551 65.443C241.213 65.3335 240.87 65.3177 240.52 65.3958C240.175 65.4718 239.859 65.6131 239.572 65.8197C239.286 66.0262 239.067 66.2705 238.916 66.5526L238.363 67.596C238.146 68.0274 238.041 68.4029 238.049 68.7225C238.057 69.0421 238.165 69.3107 238.373 69.5282C238.581 69.7456 238.877 69.9169 239.262 70.0418C239.514 70.1237 239.758 70.1649 239.995 70.1652C240.232 70.1655 240.457 70.1234 240.669 70.039C240.885 69.9524 241.083 69.8252 241.263 69.6571L242.77 70.3453C242.459 70.7114 242.086 70.9978 241.649 71.2044C241.214 71.4079 240.735 71.5206 240.212 71.5423C239.693 71.562 239.15 71.4796 238.583 71.2953ZM246.641 73.7567L250.211 66.8874L251.923 67.4435L248.352 74.3129L246.641 73.7567ZM251.655 66.2067C251.381 66.1176 251.184 65.9524 251.064 65.7112C250.943 65.47 250.936 65.2253 251.041 64.9772C251.146 64.729 251.332 64.5473 251.599 64.4321C251.87 64.3179 252.141 64.3048 252.412 64.3929C252.686 64.482 252.882 64.6466 252.999 64.8868C253.119 65.128 253.127 65.3727 253.022 65.6209C252.92 65.8701 252.734 66.0517 252.463 66.166C252.196 66.2812 251.926 66.2948 251.655 66.2067ZM253.916 71.4159L251.834 75.444L250.117 74.8863L253.687 68.017L255.328 68.5501L254.719 69.7165L254.809 69.7457C255.168 69.4128 255.591 69.1932 256.079 69.0868C256.567 68.9804 257.083 69.0157 257.628 69.1929C258.123 69.3537 258.505 69.5961 258.772 69.92C259.041 70.2408 259.18 70.6291 259.188 71.085C259.198 71.5377 259.06 72.0382 258.774 72.5865L256.496 76.9588L254.784 76.4026L256.924 72.2782C257.163 71.8226 257.224 71.4243 257.108 71.0835C256.997 70.7406 256.717 70.4964 256.269 70.3509C255.97 70.2536 255.673 70.2302 255.377 70.2807C255.083 70.328 254.81 70.4464 254.556 70.6359C254.306 70.8265 254.093 71.0865 253.916 71.4159Z" fill="#3E85F3"/>
<defs>
<linearGradient id="paint0_linear_5922_571" x1="117.618" y1="270.791" x2="243.573" y2="234.887" gradientUnits="userSpaceOnUse">
<stop stop-color="#C8C8C8"/>
<stop offset="1" stop-color="white"/>
</linearGradient>
<linearGradient id="paint1_linear_5922_571" x1="89.3599" y1="224.777" x2="161.228" y2="122.46" gradientUnits="userSpaceOnUse">
<stop stop-color="#C8C8C8"/>
<stop offset="1" stop-color="white"/>
</linearGradient>
<linearGradient id="paint2_linear_5922_571" x1="123.416" y1="367.328" x2="167.895" y2="320.318" gradientUnits="userSpaceOnUse">
<stop stop-color="#C8C8C8"/>
<stop offset="1" stop-color="white"/>
</linearGradient>
<linearGradient id="paint3_linear_5922_571" x1="272.867" y1="275.537" x2="210.825" y2="293.952" gradientUnits="userSpaceOnUse">
<stop stop-color="#C8C8C8"/>
<stop offset="1" stop-color="white"/>
</linearGradient>
<radialGradient id="paint4_radial_5922_571" cx="0" cy="0" r="1" gradientUnits="userSpaceOnUse" gradientTransform="translate(4.88203 6.87666) rotate(90) scale(6.87666 4.88203)">
<stop stop-color="#FFBBBB"/>
<stop offset="1" stop-color="#FFBBBB" stop-opacity="0"/>
</radialGradient>
<radialGradient id="paint5_radial_5922_571" cx="0" cy="0" r="1" gradientUnits="userSpaceOnUse" gradientTransform="translate(4.88203 6.87666) rotate(90) scale(6.87666 4.88203)">
<stop stop-color="#FFBBBB"/>
<stop offset="1" stop-color="#FFBBBB" stop-opacity="0"/>
</radialGradient>
<linearGradient id="paint6_linear_5922_571" x1="179.346" y1="300.208" x2="179.346" y2="313.158" gradientUnits="userSpaceOnUse">
<stop stop-color="#888888" stop-opacity="0"/>
<stop offset="1" stop-color="#888888"/>
</linearGradient>
</defs>
</svg>
